<svg width="270" height="24" viewBox="0 0 270 24" fill="none" xmlns="http://www.w3.org/2000/svg">
<g clip-path="url(#clip0_1_9574)">
<path d="M146.476 6.73955H142.74L138.347 14.2681L133.954 6.73955H129.914L136.28 17.6325V23.6839H140.085V17.681L146.476 6.7402V6.73955ZM117.298 20.4641V9.95932H120.775C124.04 9.95932 126.178 11.9687 126.178 15.2117C126.178 18.4547 124.041 20.4641 120.775 20.4641H117.298ZM113.492 23.6832H120.963C126.343 23.6832 130.031 20.3427 130.031 15.2111C130.031 10.0795 126.343 6.73891 120.963 6.73891H113.492V23.6839V23.6832ZM101.511 20.5364V16.6146H109.146V13.5647H101.511V9.88569H110.157V6.73891H97.7291V23.6839H110.462V20.5371H101.511V20.5364ZM85.7482 20.5364V16.6146H93.3832V13.5647H85.7482V9.88569H94.3936V6.73891H81.9659V23.6839H94.6989V20.5371H85.7482V20.5364ZM75.1063 12.8871C75.1063 14.7273 73.9316 15.8402 71.606 15.8402H68.505V9.93413H71.606C73.9316 9.93413 75.1063 11.0231 75.1063 12.8871ZM79.2642 23.6832L75.5758 18.2364C77.7134 17.2928 78.9589 15.4287 78.9589 12.8871C78.9589 9.08737 76.2102 6.73891 71.8173 6.73891H64.6989V23.6839H68.5044V18.9637H72.0047L75.1759 23.6839H79.2635L79.2642 23.6832Z" fill="black"/>
<path d="M208.856 20.5371V16.6152H216.49V13.5653H208.856V9.88632H217.501V6.73953H205.073V23.6838H217.806V20.5371H208.856ZM201.174 23.6838L201.127 6.73953H198.002L191.941 17.2689L185.786 6.73953H182.638V23.6838H186.209V13.7352L191.025 21.8928H192.74L197.579 13.5175L197.602 23.6838H201.174ZM169.059 17.0757L171.667 10.5878L174.274 17.0757H169.059ZM176.929 23.6838H180.923L173.57 6.73953H169.811L162.482 23.6838H166.381L167.838 20.0526H175.473L176.93 23.6838H176.929Z" fill="black"/>
<path d="M224 -0.000106812H217.475V3.36111H220.738V6.73912H224V3.36111V-0.000106812Z" fill="black"/>
<path d="M62.5614 13.316V15.5876C62.5614 15.9584 62.5344 16.3291 62.4749 16.694L62.4736 16.7011C61.7145 21.3554 57.4369 24.4945 52.9199 23.7123C50.7071 23.3286 48.8473 22.0762 47.6149 20.3498C46.3318 18.5529 45.7287 16.2425 46.1161 13.8683C46.1469 13.6822 46.1826 13.4975 46.2246 13.3154C47.1022 9.48588 50.4288 6.73955 54.2946 6.73891H59.3482V10.0969H57.9741L54.2946 10.0975C51.5145 10.0988 49.2616 12.4215 49.2623 15.2853C49.2623 18.1492 51.517 20.4706 54.2971 20.4699C56.5581 20.4693 58.5414 18.9152 59.1463 16.6701H54.8675V13.3147L62.562 13.316H62.5614Z" fill="black"/>
<path d="M162.482 13.3165V15.5881C162.482 15.9588 162.455 16.3295 162.396 16.6945L162.394 16.7016C161.635 21.3559 157.358 24.4949 152.841 23.7127C150.628 23.3291 148.768 22.0767 147.536 20.3502C146.252 18.5527 145.649 16.2424 146.037 13.8681C146.068 13.682 146.103 13.4973 146.145 13.3152C147.023 9.48568 150.35 6.73935 154.215 6.73871H159.269V10.0967H157.895L154.215 10.0973C151.435 10.0986 149.183 12.4213 149.183 15.2851C149.183 18.149 151.438 20.4704 154.218 20.4697C156.479 20.4691 158.462 18.915 159.067 16.6699H154.788V13.3145L162.483 13.3158L162.482 13.3165Z" fill="black"/>
</g>
<defs>
<clipPath id="clip0_1_9574">
<rect width="269.478" height="23.8323" fill="white" transform="translate(0.260986 -0.000106812)"/>
</clipPath>
</defs>
</svg>
